<mxfile host="app.diagrams.net" modified="2022-05-02T17:11:03.642Z" agent="5.0 (Macintosh)" etag="0sSBgesuMJLxk-va8Gpn" version="17.5.0" type="github">
  <diagram id="Q0T6PyPt_sgyuIneAvtX" name="Page-1">
    <mxGraphModel dx="1650" dy="859" grid="1" gridSize="10" guides="1" tooltips="1" connect="1" arrows="1" fold="1" page="1" pageScale="1" pageWidth="827" pageHeight="1169" background="#ffffff" math="0" shadow="1">
      <root>
        <mxCell id="0" />
        <mxCell id="1" parent="0" />
        <mxCell id="c0149Q_ciaR8uE8cNOBG-34" value="" style="whiteSpace=wrap;html=1;gradientColor=none;" vertex="1" parent="1">
          <mxGeometry width="827" height="827" as="geometry" />
        </mxCell>
        <mxCell id="c0149Q_ciaR8uE8cNOBG-3" value="Farmer" style="swimlane;childLayout=stackLayout;horizontal=1;startSize=30;horizontalStack=0;fontSize=14;fontStyle=0;strokeWidth=2;resizeParent=0;resizeLast=1;shadow=0;dashed=0;align=center;rounded=1;fillColor=#dae8fc;strokeColor=#000000;" vertex="1" parent="1">
          <mxGeometry x="40" y="40" width="160" height="690" as="geometry">
            <mxRectangle x="40" y="40" width="80" height="30" as="alternateBounds" />
          </mxGeometry>
        </mxCell>
        <mxCell id="c0149Q_ciaR8uE8cNOBG-5" value="Distributor" style="swimlane;childLayout=stackLayout;horizontal=1;startSize=30;horizontalStack=0;fontSize=14;fontStyle=0;strokeWidth=2;resizeParent=0;resizeLast=1;shadow=0;dashed=0;align=center;rounded=1;fillColor=#d5e8d4;strokeColor=#33001A;" vertex="1" parent="1">
          <mxGeometry x="240" y="40" width="160" height="690" as="geometry">
            <mxRectangle x="240" y="40" width="100" height="30" as="alternateBounds" />
          </mxGeometry>
        </mxCell>
        <mxCell id="c0149Q_ciaR8uE8cNOBG-6" value="Retailer" style="swimlane;childLayout=stackLayout;horizontal=1;startSize=30;horizontalStack=0;fontSize=14;fontStyle=0;strokeWidth=2;resizeParent=0;resizeLast=1;shadow=0;dashed=0;align=center;rounded=1;fillColor=#ffe6cc;strokeColor=#000000;" vertex="1" parent="1">
          <mxGeometry x="440" y="40" width="160" height="690" as="geometry">
            <mxRectangle x="440" y="40" width="80" height="30" as="alternateBounds" />
          </mxGeometry>
        </mxCell>
        <mxCell id="c0149Q_ciaR8uE8cNOBG-7" value="Customer" style="swimlane;childLayout=stackLayout;horizontal=1;startSize=30;horizontalStack=0;fontSize=14;fontStyle=0;strokeWidth=2;resizeParent=0;resizeLast=1;shadow=0;dashed=0;align=center;rounded=1;fillColor=#f8cecc;strokeColor=#000000;" vertex="1" parent="1">
          <mxGeometry x="640" y="40" width="160" height="690" as="geometry">
            <mxRectangle x="640" y="40" width="90" height="30" as="alternateBounds" />
          </mxGeometry>
        </mxCell>
        <mxCell id="c0149Q_ciaR8uE8cNOBG-10" value="" style="edgeStyle=orthogonalEdgeStyle;orthogonalLoop=1;jettySize=auto;html=1;fontSize=13;dashed=1;" edge="1" parent="1" source="c0149Q_ciaR8uE8cNOBG-8" target="c0149Q_ciaR8uE8cNOBG-9">
          <mxGeometry relative="1" as="geometry" />
        </mxCell>
        <mxCell id="c0149Q_ciaR8uE8cNOBG-8" value="" style="ellipse;whiteSpace=wrap;html=1;aspect=fixed;fontSize=13;rounded=1;" vertex="1" parent="1">
          <mxGeometry x="100" y="100" width="40" height="40" as="geometry" />
        </mxCell>
        <mxCell id="c0149Q_ciaR8uE8cNOBG-18" style="edgeStyle=orthogonalEdgeStyle;rounded=0;orthogonalLoop=1;jettySize=auto;html=1;entryX=0.5;entryY=0;entryDx=0;entryDy=0;" edge="1" parent="1" source="c0149Q_ciaR8uE8cNOBG-9" target="c0149Q_ciaR8uE8cNOBG-11">
          <mxGeometry relative="1" as="geometry" />
        </mxCell>
        <mxCell id="c0149Q_ciaR8uE8cNOBG-9" value="&lt;div&gt;Harvest&lt;/div&gt;" style="whiteSpace=wrap;html=1;fontSize=13;rounded=1;" vertex="1" parent="1">
          <mxGeometry x="60" y="200" width="120" height="60" as="geometry" />
        </mxCell>
        <mxCell id="c0149Q_ciaR8uE8cNOBG-19" style="edgeStyle=orthogonalEdgeStyle;rounded=0;orthogonalLoop=1;jettySize=auto;html=1;entryX=0.5;entryY=0;entryDx=0;entryDy=0;" edge="1" parent="1" source="c0149Q_ciaR8uE8cNOBG-11" target="c0149Q_ciaR8uE8cNOBG-12">
          <mxGeometry relative="1" as="geometry" />
        </mxCell>
        <mxCell id="c0149Q_ciaR8uE8cNOBG-11" value="Process" style="whiteSpace=wrap;html=1;fontSize=13;rounded=1;" vertex="1" parent="1">
          <mxGeometry x="60" y="300" width="120" height="60" as="geometry" />
        </mxCell>
        <mxCell id="c0149Q_ciaR8uE8cNOBG-20" style="edgeStyle=orthogonalEdgeStyle;rounded=0;orthogonalLoop=1;jettySize=auto;html=1;entryX=0.5;entryY=0;entryDx=0;entryDy=0;" edge="1" parent="1" source="c0149Q_ciaR8uE8cNOBG-12" target="c0149Q_ciaR8uE8cNOBG-13">
          <mxGeometry relative="1" as="geometry" />
        </mxCell>
        <mxCell id="c0149Q_ciaR8uE8cNOBG-12" value="Package" style="whiteSpace=wrap;html=1;fontSize=13;rounded=1;" vertex="1" parent="1">
          <mxGeometry x="60" y="400" width="120" height="60" as="geometry" />
        </mxCell>
        <mxCell id="c0149Q_ciaR8uE8cNOBG-26" style="edgeStyle=orthogonalEdgeStyle;rounded=0;orthogonalLoop=1;jettySize=auto;html=1;entryX=0;entryY=0.5;entryDx=0;entryDy=0;" edge="1" parent="1" source="c0149Q_ciaR8uE8cNOBG-13" target="c0149Q_ciaR8uE8cNOBG-25">
          <mxGeometry relative="1" as="geometry" />
        </mxCell>
        <mxCell id="c0149Q_ciaR8uE8cNOBG-13" value="&lt;div&gt;Sell&lt;/div&gt;" style="whiteSpace=wrap;html=1;fontSize=13;rounded=1;" vertex="1" parent="1">
          <mxGeometry x="60" y="500" width="120" height="60" as="geometry" />
        </mxCell>
        <mxCell id="c0149Q_ciaR8uE8cNOBG-14" value="&lt;div&gt;Buy&lt;/div&gt;&lt;div&gt;(Purchase Item)&lt;br&gt;&lt;/div&gt;" style="whiteSpace=wrap;html=1;fontSize=13;rounded=1;" vertex="1" parent="1">
          <mxGeometry x="660" y="600" width="120" height="60" as="geometry" />
        </mxCell>
        <mxCell id="c0149Q_ciaR8uE8cNOBG-31" style="edgeStyle=orthogonalEdgeStyle;rounded=0;orthogonalLoop=1;jettySize=auto;html=1;entryX=0.5;entryY=0;entryDx=0;entryDy=0;dashed=1;" edge="1" parent="1" source="c0149Q_ciaR8uE8cNOBG-15" target="c0149Q_ciaR8uE8cNOBG-25">
          <mxGeometry relative="1" as="geometry" />
        </mxCell>
        <mxCell id="c0149Q_ciaR8uE8cNOBG-15" value="" style="ellipse;whiteSpace=wrap;html=1;aspect=fixed;fontSize=13;rounded=1;" vertex="1" parent="1">
          <mxGeometry x="300" y="100" width="40" height="40" as="geometry" />
        </mxCell>
        <mxCell id="c0149Q_ciaR8uE8cNOBG-24" style="edgeStyle=orthogonalEdgeStyle;rounded=0;orthogonalLoop=1;jettySize=auto;html=1;entryX=0.5;entryY=0;entryDx=0;entryDy=0;dashed=1;" edge="1" parent="1" source="c0149Q_ciaR8uE8cNOBG-16" target="c0149Q_ciaR8uE8cNOBG-23">
          <mxGeometry relative="1" as="geometry" />
        </mxCell>
        <mxCell id="c0149Q_ciaR8uE8cNOBG-16" value="" style="ellipse;whiteSpace=wrap;html=1;aspect=fixed;fontSize=13;rounded=1;gradientColor=none;" vertex="1" parent="1">
          <mxGeometry x="500" y="100" width="40" height="40" as="geometry" />
        </mxCell>
        <mxCell id="c0149Q_ciaR8uE8cNOBG-22" style="edgeStyle=orthogonalEdgeStyle;rounded=0;orthogonalLoop=1;jettySize=auto;html=1;entryX=0.5;entryY=0;entryDx=0;entryDy=0;dashed=1;" edge="1" parent="1" source="c0149Q_ciaR8uE8cNOBG-17" target="c0149Q_ciaR8uE8cNOBG-14">
          <mxGeometry relative="1" as="geometry" />
        </mxCell>
        <mxCell id="c0149Q_ciaR8uE8cNOBG-17" value="" style="ellipse;whiteSpace=wrap;html=1;aspect=fixed;fontSize=13;rounded=1;" vertex="1" parent="1">
          <mxGeometry x="700" y="100" width="40" height="40" as="geometry" />
        </mxCell>
        <mxCell id="c0149Q_ciaR8uE8cNOBG-29" style="edgeStyle=orthogonalEdgeStyle;rounded=0;orthogonalLoop=1;jettySize=auto;html=1;entryX=0;entryY=0.5;entryDx=0;entryDy=0;" edge="1" parent="1" source="c0149Q_ciaR8uE8cNOBG-23" target="c0149Q_ciaR8uE8cNOBG-14">
          <mxGeometry relative="1" as="geometry" />
        </mxCell>
        <mxCell id="c0149Q_ciaR8uE8cNOBG-23" value="&lt;div&gt;Receive&lt;/div&gt;" style="whiteSpace=wrap;html=1;fontSize=13;rounded=1;" vertex="1" parent="1">
          <mxGeometry x="460" y="600" width="120" height="60" as="geometry" />
        </mxCell>
        <mxCell id="c0149Q_ciaR8uE8cNOBG-30" style="edgeStyle=orthogonalEdgeStyle;rounded=0;orthogonalLoop=1;jettySize=auto;html=1;entryX=0.5;entryY=0;entryDx=0;entryDy=0;" edge="1" parent="1" source="c0149Q_ciaR8uE8cNOBG-25" target="c0149Q_ciaR8uE8cNOBG-27">
          <mxGeometry relative="1" as="geometry" />
        </mxCell>
        <mxCell id="c0149Q_ciaR8uE8cNOBG-25" value="Buy" style="whiteSpace=wrap;html=1;fontSize=13;rounded=1;" vertex="1" parent="1">
          <mxGeometry x="260" y="500" width="120" height="60" as="geometry" />
        </mxCell>
        <mxCell id="c0149Q_ciaR8uE8cNOBG-28" style="edgeStyle=orthogonalEdgeStyle;rounded=0;orthogonalLoop=1;jettySize=auto;html=1;entryX=0;entryY=0.5;entryDx=0;entryDy=0;" edge="1" parent="1" source="c0149Q_ciaR8uE8cNOBG-27" target="c0149Q_ciaR8uE8cNOBG-23">
          <mxGeometry relative="1" as="geometry" />
        </mxCell>
        <mxCell id="c0149Q_ciaR8uE8cNOBG-27" value="Ship" style="whiteSpace=wrap;html=1;fontSize=13;rounded=1;" vertex="1" parent="1">
          <mxGeometry x="260" y="600" width="120" height="60" as="geometry" />
        </mxCell>
        <mxCell id="c0149Q_ciaR8uE8cNOBG-32" value="" style="ellipse;whiteSpace=wrap;html=1;aspect=fixed;fontSize=13;rounded=1;gradientColor=none;" vertex="1" parent="1">
          <mxGeometry x="505" y="105" width="30" height="30" as="geometry" />
        </mxCell>
        <mxCell id="c0149Q_ciaR8uE8cNOBG-33" value="" style="ellipse;whiteSpace=wrap;html=1;aspect=fixed;fontSize=13;rounded=1;gradientColor=none;" vertex="1" parent="1">
          <mxGeometry x="705" y="105" width="30" height="30" as="geometry" />
        </mxCell>
      </root>
    </mxGraphModel>
  </diagram>
</mxfile>
